ffmpeg started on 2025-05-19 at 12:08:41
Report written to "D:\Convert\FFMetrics\reports\psnr_report-6.txt"
Log level: 32
Command line:
ffmpeg -hide_banner -nostdin -i "G:\\\xc0\xed\xe8\xec\xe5\\\xce\xed\xe3\xee\xe8\xed\xe3\xe8\\!_30_\xc2\xe5\xf1\xed\xe0_2023\\DreamCast\\\xd2\xe5\xed\xfc \xeb\xfe\xe1\xe2\xe8 \xe2 \xf2\xe0\xe9\xed\xee\xe9 \xea\xee\xec\xed\xe0\xf2\xe5\\[DC] Aiyou de Mishi - 01_Telegram_HEVC.mkv" -i "G:\\\xc0\xed\xe8\xec\xe5\\\xce\xed\xe3\xee\xe8\xed\xe3\xe8\\!_30_\xc2\xe5\xf1\xed\xe0_2023\\DreamCast\\\xd2\xe5\xed\xfc \xeb\xfe\xe1\xe2\xe8 \xe2 \xf2\xe0\xe9\xed\xee\xe9 \xea\xee\xec\xed\xe0\xf2\xe5\\[DC] Aiyou de Mishi - 01_Telegram.mp4" -lavfi "[0:v]settb=AVTB,setpts=PTS-STARTPTS,format=pix_fmts=yuv420p10,fps=24/1,scale=1920:1080:flags=bicubic[main];[1:v]settb=AVTB,setpts=PTS-STARTPTS,format=pix_fmts=yuv420p,fps=24/1,scale=1920:1080:flags=bicubic[ref];[main][ref]psnr=eof_action=endall:stats_file='D\\:/Convert/FFMetrics/logs/psnr_logfile-6.txt'" -f null -
Input #0, matroska,webm, from 'G:\Аниме\Онгоинги\!_30_Весна_2023\DreamCast\Тень любви в тайной комнате\[DC] Aiyou de Mishi - 01_Telegram_HEVC.mkv':
  Metadata:
    COMPATIBLE_BRANDS: isomiso2avc1mp41
    MAJOR_BRAND     : isom
    MINOR_VERSION   : 512
    ENCODER         : Lavf61.7.100
  Duration: 00:18:59.46, start: -0.021000, bitrate: 1113 kb/s
  Stream #0:0: Video: hevc (Main 10), yuv420p10le(tv, bt709, progressive), 1920x1080 [SAR 1:1 DAR 16:9], 24 fps, 24 tbr, 1k tbn (default)
      Metadata:
        HANDLER_NAME    : VideoHandler
        VENDOR_ID       : [0][0][0][0]
        ENCODER         : Lavc61.19.100 libx265
        BPS             : 913632
        DURATION        : 00:18:59.374666666
        NUMBER_OF_FRAMES: 27345
        NUMBER_OF_BYTES : 130121084
        _STATISTICS_WRITING_APP: mkvpropedit v66.0.0 ('Josie') 64-bit
        _STATISTICS_WRITING_DATE_UTC: 2025-05-19 06:58:03
        _STATISTICS_TAGS: BPS DURATION NUMBER_OF_FRAMES NUMBER_OF_BYTES
  Stream #0:1: Audio: aac (LC), 48000 Hz, stereo, fltp (default)
      Metadata:
        HANDLER_NAME    : SoundHandler
        VENDOR_ID       : [0][0][0][0]
        ENCODER         : Lavc61.19.100 aac
        BPS             : 196344
        DURATION        : 00:18:59.434000000
        NUMBER_OF_FRAMES: 53412
        NUMBER_OF_BYTES : 27965130
        _STATISTICS_WRITING_APP: mkvpropedit v66.0.0 ('Josie') 64-bit
        _STATISTICS_WRITING_DATE_UTC: 2025-05-19 06:58:03
        _STATISTICS_TAGS: BPS DURATION NUMBER_OF_FRAMES NUMBER_OF_BYTES
Input #1, mov,mp4,m4a,3gp,3g2,mj2, from 'G:\Аниме\Онгоинги\!_30_Весна_2023\DreamCast\Тень любви в тайной комнате\[DC] Aiyou de Mishi - 01_Telegram.mp4':
  Metadata:
    major_brand     : isom
    minor_version   : 512
    compatible_brands: isomiso2avc1mp41
    encoder         : Lavf60.4.101
  Duration: 00:18:59.43, start: 0.000000, bitrate: 2261 kb/s
  Stream #1:0[0x1](und): Video: h264 (Main) (avc1 / 0x31637661), yuv420p(tv, bt709, progressive), 1920x1080 [SAR 1:1 DAR 16:9], 2059 kb/s, 24 fps, 24 tbr, 12288 tbn (default)
      Metadata:
        handler_name    : VideoHandler
        vendor_id       : [0][0][0][0]
        encoder         : Lavc60.9.100 h264_qsv
  Stream #1:1[0x2](und): Audio: aac (LC) (mp4a / 0x6134706D), 48000 Hz, stereo, fltp, 196 kb/s (default)
      Metadata:
        handler_name    : SoundHandler
        vendor_id       : [0][0][0][0]
Stream mapping:
  Stream #0:0 (hevc) -> settb:default
  Stream #1:0 (h264) -> settb:default
  psnr:default -> Stream #0:0 (wrapped_avframe)
  Stream #0:1 -> #0:1 (aac (native) -> pcm_s16le (native))
Output #0, null, to 'pipe:':
  Metadata:
    COMPATIBLE_BRANDS: isomiso2avc1mp41
    MAJOR_BRAND     : isom
    MINOR_VERSION   : 512
    encoder         : Lavf61.7.100
  Stream #0:0: Video: wrapped_avframe, yuv420p10le(tv, bt709, progressive), 1920x1080 [SAR 1:1 DAR 16:9], q=2-31, 200 kb/s, 24 fps, 24 tbn
      Metadata:
        encoder         : Lavc61.19.100 wrapped_avframe
  Stream #0:1: Audio: pcm_s16le, 48000 Hz, stereo, s16, 1536 kb/s (default)
      Metadata:
        HANDLER_NAME    : SoundHandler
        VENDOR_ID       : [0][0][0][0]
        _STATISTICS_TAGS: BPS DURATION NUMBER_OF_FRAMES NUMBER_OF_BYTES
        BPS             : 196344
        DURATION        : 00:18:59.434000000
        NUMBER_OF_FRAMES: 53412
        NUMBER_OF_BYTES : 27965130
        _STATISTICS_WRITING_APP: mkvpropedit v66.0.0 ('Josie') 64-bit
        _STATISTICS_WRITING_DATE_UTC: 2025-05-19 06:58:03
        encoder         : Lavc61.19.100 pcm_s16le
frame=  175 fps=0.0 q=-0.0 size=N/A time=00:00:07.29 bitrate=N/A speed=14.1x    frame=  378 fps=363 q=-0.0 size=N/A time=00:00:15.75 bitrate=N/A speed=15.1x    frame=  650 fps=415 q=-0.0 size=N/A time=00:00:27.08 bitrate=N/A speed=17.3x    frame=  901 fps=433 q=-0.0 size=N/A time=00:00:37.54 bitrate=N/A speed=18.1x    frame= 1153 fps=445 q=-0.0 size=N/A time=00:00:48.04 bitrate=N/A speed=18.6x    frame= 1406 fps=451 q=-0.0 size=N/A time=00:00:58.58 bitrate=N/A speed=18.8x    frame= 1667 fps=460 q=-0.0 size=N/A time=00:01:09.45 bitrate=N/A speed=19.2x    frame= 1871 fps=452 q=-0.0 size=N/A time=00:01:17.95 bitrate=N/A speed=18.9x    frame= 2093 fps=449 q=-0.0 size=N/A time=00:01:27.20 bitrate=N/A speed=18.7x    frame= 2286 fps=442 q=-0.0 size=N/A time=00:01:35.25 bitrate=N/A speed=18.4x    frame= 2434 fps=428 q=-0.0 size=N/A time=00:01:41.41 bitrate=N/A speed=17.8x    frame= 2642 fps=426 q=-0.0 size=N/A time=00:01:50.08 bitrate=N/A speed=17.8x    frame= 2840 fps=422 q=-0.0 size=N/A time=00:01:58.33 bitrate=N/A speed=17.6x    frame= 2989 fps=413 q=-0.0 size=N/A time=00:02:04.54 bitrate=N/A speed=17.2x    frame= 3195 fps=412 q=-0.0 size=N/A time=00:02:13.12 bitrate=N/A speed=17.2x    frame= 3398 fps=411 q=-0.0 size=N/A time=00:02:21.58 bitrate=N/A speed=17.1x    frame= 3620 fps=412 q=-0.0 size=N/A time=00:02:30.83 bitrate=N/A speed=17.2x    frame= 3779 fps=407 q=-0.0 size=N/A time=00:02:37.45 bitrate=N/A speed=16.9x    frame= 3994 fps=407 q=-0.0 size=N/A time=00:02:46.41 bitrate=N/A speed=16.9x    frame= 4244 fps=411 q=-0.0 size=N/A time=00:02:56.83 bitrate=N/A speed=17.1x    frame= 4510 fps=416 q=-0.0 size=N/A time=00:03:07.91 bitrate=N/A speed=17.3x    frame= 4774 fps=420 q=-0.0 size=N/A time=00:03:18.91 bitrate=N/A speed=17.5x    frame= 5058 fps=426 q=-0.0 size=N/A time=00:03:30.75 bitrate=N/A speed=17.8x    frame= 5306 fps=428 q=-0.0 size=N/A time=00:03:41.08 bitrate=N/A speed=17.8x    frame= 5536 fps=429 q=-0.0 size=N/A time=00:03:50.66 bitrate=N/A speed=17.9x    frame= 5776 fps=430 q=-0.0 size=N/A time=00:04:00.66 bitrate=N/A speed=17.9x    frame= 5989 fps=430 q=-0.0 size=N/A time=00:04:09.54 bitrate=N/A speed=17.9x    frame= 6261 fps=433 q=-0.0 size=N/A time=00:04:20.87 bitrate=N/A speed=  18x    frame= 6502 fps=434 q=-0.0 size=N/A time=00:04:30.91 bitrate=N/A speed=18.1x    frame= 6737 fps=435 q=-0.0 size=N/A time=00:04:40.70 bitrate=N/A speed=18.1x    frame= 6967 fps=436 q=-0.0 size=N/A time=00:04:50.29 bitrate=N/A speed=18.1x    frame= 7220 fps=437 q=-0.0 size=N/A time=00:05:00.83 bitrate=N/A speed=18.2x    frame= 7446 fps=437 q=-0.0 size=N/A time=00:05:10.25 bitrate=N/A speed=18.2x    frame= 7696 fps=439 q=-0.0 size=N/A time=00:05:20.66 bitrate=N/A speed=18.3x    frame= 7963 fps=441 q=-0.0 size=N/A time=00:05:31.79 bitrate=N/A speed=18.4x    frame= 8194 fps=441 q=-0.0 size=N/A time=00:05:41.41 bitrate=N/A speed=18.4x    frame= 8428 fps=441 q=-0.0 size=N/A time=00:05:51.16 bitrate=N/A speed=18.4x    frame= 8690 fps=443 q=-0.0 size=N/A time=00:06:02.08 bitrate=N/A speed=18.5x    frame= 8962 fps=445 q=-0.0 size=N/A time=00:06:13.41 bitrate=N/A speed=18.5x    frame= 9228 fps=447 q=-0.0 size=N/A time=00:06:24.50 bitrate=N/A speed=18.6x    frame= 9502 fps=449 q=-0.0 size=N/A time=00:06:35.91 bitrate=N/A speed=18.7x    frame= 9786 fps=451 q=-0.0 size=N/A time=00:06:47.75 bitrate=N/A speed=18.8x    frame=10049 fps=453 q=-0.0 size=N/A time=00:06:58.70 bitrate=N/A speed=18.9x    frame=10325 fps=455 q=-0.0 size=N/A time=00:07:10.20 bitrate=N/A speed=  19x    frame=10564 fps=455 q=-0.0 size=N/A time=00:07:20.16 bitrate=N/A speed=  19x    frame=10820 fps=456 q=-0.0 size=N/A time=00:07:30.83 bitrate=N/A speed=  19x    frame=11060 fps=456 q=-0.0 size=N/A time=00:07:40.83 bitrate=N/A speed=  19x    frame=11338 fps=458 q=-0.0 size=N/A time=00:07:52.41 bitrate=N/A speed=19.1x    frame=11618 fps=460 q=-0.0 size=N/A time=00:08:04.08 bitrate=N/A speed=19.2x    frame=11903 fps=461 q=-0.0 size=N/A time=00:08:15.95 bitrate=N/A speed=19.2x    frame=12175 fps=463 q=-0.0 size=N/A time=00:08:27.29 bitrate=N/A speed=19.3x    frame=12440 fps=463 q=-0.0 size=N/A time=00:08:38.33 bitrate=N/A speed=19.3x    frame=12708 fps=464 q=-0.0 size=N/A time=00:08:49.50 bitrate=N/A speed=19.3x    frame=12972 fps=465 q=-0.0 size=N/A time=00:09:00.50 bitrate=N/A speed=19.4x    frame=13253 fps=466 q=-0.0 size=N/A time=00:09:12.20 bitrate=N/A speed=19.4x    frame=13512 fps=467 q=-0.0 size=N/A time=00:09:23.00 bitrate=N/A speed=19.5x    frame=13794 fps=469 q=-0.0 size=N/A time=00:09:34.75 bitrate=N/A speed=19.5x    frame=14067 fps=470 q=-0.0 size=N/A time=00:09:46.12 bitrate=N/A speed=19.6x    frame=14354 fps=471 q=-0.0 size=N/A time=00:09:58.08 bitrate=N/A speed=19.6x    frame=14627 fps=472 q=-0.0 size=N/A time=00:10:09.45 bitrate=N/A speed=19.7x    frame=14892 fps=473 q=-0.0 size=N/A time=00:10:20.50 bitrate=N/A speed=19.7x    frame=15166 fps=474 q=-0.0 size=N/A time=00:10:31.91 bitrate=N/A speed=19.7x    frame=15423 fps=474 q=-0.0 size=N/A time=00:10:42.62 bitrate=N/A speed=19.8x    frame=15691 fps=475 q=-0.0 size=N/A time=00:10:53.79 bitrate=N/A speed=19.8x    frame=15935 fps=475 q=-0.0 size=N/A time=00:11:03.95 bitrate=N/A speed=19.8x    frame=16211 fps=476 q=-0.0 size=N/A time=00:11:15.45 bitrate=N/A speed=19.8x    frame=16438 fps=475 q=-0.0 size=N/A time=00:11:24.91 bitrate=N/A speed=19.8x    frame=16682 fps=475 q=-0.0 size=N/A time=00:11:35.08 bitrate=N/A speed=19.8x    frame=16940 fps=476 q=-0.0 size=N/A time=00:11:45.83 bitrate=N/A speed=19.8x    frame=17142 fps=474 q=-0.0 size=N/A time=00:11:54.25 bitrate=N/A speed=19.8x    frame=17322 fps=473 q=-0.0 size=N/A time=00:12:01.75 bitrate=N/A speed=19.7x    frame=17543 fps=472 q=-0.0 size=N/A time=00:12:10.95 bitrate=N/A speed=19.7x    frame=17796 fps=472 q=-0.0 size=N/A time=00:12:21.50 bitrate=N/A speed=19.7x    frame=18033 fps=472 q=-0.0 size=N/A time=00:12:31.37 bitrate=N/A speed=19.7x    frame=18298 fps=473 q=-0.0 size=N/A time=00:12:42.41 bitrate=N/A speed=19.7x    frame=18559 fps=473 q=-0.0 size=N/A time=00:12:53.29 bitrate=N/A speed=19.7x    frame=18823 fps=474 q=-0.0 size=N/A time=00:13:04.29 bitrate=N/A speed=19.7x    frame=19101 fps=474 q=-0.0 size=N/A time=00:13:15.91 bitrate=N/A speed=19.8x    frame=19367 fps=475 q=-0.0 size=N/A time=00:13:26.95 bitrate=N/A speed=19.8x    frame=19645 fps=476 q=-0.0 size=N/A time=00:13:38.54 bitrate=N/A speed=19.8x    frame=19916 fps=476 q=-0.0 size=N/A time=00:13:49.83 bitrate=N/A speed=19.8x    frame=20208 fps=477 q=-0.0 size=N/A time=00:14:02.00 bitrate=N/A speed=19.9x    frame=20462 fps=478 q=-0.0 size=N/A time=00:14:12.62 bitrate=N/A speed=19.9x    frame=20734 fps=478 q=-0.0 size=N/A time=00:14:23.91 bitrate=N/A speed=19.9x    frame=21011 fps=479 q=-0.0 size=N/A time=00:14:35.45 bitrate=N/A speed=  20x    frame=21300 fps=480 q=-0.0 size=N/A time=00:14:47.50 bitrate=N/A speed=  20x    frame=21579 fps=481 q=-0.0 size=N/A time=00:14:59.12 bitrate=N/A speed=  20x    frame=21860 fps=481 q=-0.0 size=N/A time=00:15:10.83 bitrate=N/A speed=  20x    frame=22115 fps=481 q=-0.0 size=N/A time=00:15:21.45 bitrate=N/A speed=20.1x    frame=22372 fps=482 q=-0.0 size=N/A time=00:15:32.16 bitrate=N/A speed=20.1x    frame=22609 fps=481 q=-0.0 size=N/A time=00:15:42.04 bitrate=N/A speed=20.1x    frame=22864 fps=481 q=-0.0 size=N/A time=00:15:52.66 bitrate=N/A speed=20.1x    frame=23119 fps=482 q=-0.0 size=N/A time=00:16:03.29 bitrate=N/A speed=20.1x    frame=23372 fps=482 q=-0.0 size=N/A time=00:16:13.83 bitrate=N/A speed=20.1x    frame=23631 fps=482 q=-0.0 size=N/A time=00:16:24.62 bitrate=N/A speed=20.1x    frame=23893 fps=482 q=-0.0 size=N/A time=00:16:35.54 bitrate=N/A speed=20.1x    frame=24161 fps=483 q=-0.0 size=N/A time=00:16:46.70 bitrate=N/A speed=20.1x    frame=24428 fps=483 q=-0.0 size=N/A time=00:16:57.83 bitrate=N/A speed=20.1x    frame=24682 fps=483 q=-0.0 size=N/A time=00:17:08.41 bitrate=N/A speed=20.1x    frame=24919 fps=483 q=-0.0 size=N/A time=00:17:18.29 bitrate=N/A speed=20.1x    frame=25138 fps=482 q=-0.0 size=N/A time=00:17:27.41 bitrate=N/A speed=20.1x    frame=25340 fps=481 q=-0.0 size=N/A time=00:17:35.83 bitrate=N/A speed=20.1x    frame=25494 fps=480 q=-0.0 size=N/A time=00:17:42.25 bitrate=N/A speed=  20x    frame=25667 fps=478 q=-0.0 size=N/A time=00:17:49.45 bitrate=N/A speed=19.9x    frame=25885 fps=478 q=-0.0 size=N/A time=00:17:58.54 bitrate=N/A speed=19.9x    frame=26116 fps=477 q=-0.0 size=N/A time=00:18:08.16 bitrate=N/A speed=19.9x    frame=26322 fps=477 q=-0.0 size=N/A time=00:18:16.75 bitrate=N/A speed=19.9x    frame=26545 fps=476 q=-0.0 size=N/A time=00:18:26.04 bitrate=N/A speed=19.8x    frame=26757 fps=476 q=-0.0 size=N/A time=00:18:34.87 bitrate=N/A speed=19.8x    frame=26967 fps=475 q=-0.0 size=N/A time=00:18:43.62 bitrate=N/A speed=19.8x    frame=27185 fps=475 q=-0.0 size=N/A time=00:18:52.70 bitrate=N/A speed=19.8x    [Parsed_psnr_10 @ 000001f56afa5d40] PSNR y:49.429124 u:53.271131 v:52.901458 average:50.342134 min:36.246625 max:inf
[out#0/null @ 000001f55e3e1ec0] video:11750KiB audio:213648KiB subtitle:0KiB other streams:0KiB global headers:0KiB muxing overhead: unknown
frame=27345 fps=475 q=-0.0 Lsize=N/A time=00:18:59.37 bitrate=N/A speed=19.8x    
